<?xml version = "1.0" standalone = "no"?>
<svg xmlns="http://www.w3.org/2000/svg" xmlns:xlink="http://www.w3.org/1999/xlink" font-family="Arial" viewBox="288 576 32 32" width="32" height="32"><path transform="matrix(1 0 0 1 288 576)" d="M 16 0 L 20.422291236000333 3.055728090000846 L 25.88854381999832 3.055728090000841 L 27.57770876399966 8.000000000000004 L 32 11.05572809000084 L 30.31083505599865 16 L 32 20.94427190999916 L 27.57770876399966 23.999999999999996 L 25.88854381999832 28.94427190999916 L 20.422291236000333 28.944271909999152 L 16 32 L 11.577708763999667 28.944271909999156 L 6.111456180001685 28.94427190999916 L 4.422291236000342 24 L 1.7763568394002505e-15 20.94427190999916 L 1.6891649440013516 16 L 0 11.055728090000844 L 4.422291236000339 8.000000000000004 L 6.111456180001682 3.0557280900008426 L 11.577708763999663 3.055728090000846 Z" fill-rule="evenodd" fill="#000000" stroke="none"/><path transform="matrix(1 0 0 1 289 577)" d="M 15.000000000000002 0 L 19.145898033750314 2.8647450843757998 L 24.27050983124842 2.8647450843757873 L 25.854101966249676 7.500000000000006 L 30 10.36474508437579 L 28.416407864998725 15 L 30 19.63525491562421 L 25.854101966249676 22.499999999999993 L 24.27050983124842 27.135254915624213 L 19.145898033750314 27.135254915624202 L 15.000000000000002 30 L 10.85410196624969 27.135254915624202 L 5.72949016875158 27.135254915624213 L 4.145898033750326 22.499999999999993 L 1.7763568394002505e-15 19.635254915624213 L 1.5835921350012736 15.000000000000002 L 0 10.364745084375791 L 4.145898033750322 7.500000000000008 L 5.7294901687515765 2.864745084375789 L 10.854101966249686 2.8647450843757998 Z" fill-rule="evenodd" fill="#ffff66" stroke="none"/></svg>